<mxfile host="app.diagrams.net" modified="2023-09-20T07:51:43.807Z" agent="Mozilla/5.0 (Macintosh; Intel Mac OS X 10_15_7) AppleWebKit/605.1.15 (KHTML, like Gecko) Version/16.6 Safari/605.1.15" version="21.7.5" etag="VLBkcHhmYUC9X3z-jqq6" type="github">
  <diagram name="第 1 页" id="HquRnz_lNFAHprtdUn0B">
    <mxGraphModel>
      <root>
        <mxCell id="0" />
        <mxCell id="1" parent="0" />
      </root>
    </mxGraphModel>
  </diagram>
</mxfile>
